M48
FMAT,2
INCH,LZ
T1C0.0150
T2C0.0350
%
T1
X006929Y003189
X006929Y001693
X006535Y000748
X001339Y000787
X006417Y006535
X006102Y001654
X00563Y00374
X005236Y001181
X005433Y004882
X005354Y005669
X005236Y006535
X005748Y002835
X005236Y000315
X005157Y002323
T2
X00937Y009551
X00937Y008551
X00937Y007551
X00937Y006551
X00937Y005551
X00937Y004551
X00937Y003551
X00937Y002551
X00937Y001551
X00937Y000551
X006732Y008307
X005732Y008307
X00816Y00944
X00716Y00944
X00616Y00944
X00516Y00944
X00416Y00944
X00055Y00046
X00055Y00146
X00055Y00246
X00055Y00346
X00055Y00446
X00055Y00546
X00055Y00646
X00055Y00746
X00055Y00846
X00055Y00946
M30
