%FSTAX24Y24*%
%MOIN*%
%IN LAYER2.GBR *%
%ADD10C,0.0100*%
%ADD11C,0.0150*%
%ADD12C,0.0240*%
%ADD13C,0.0300*%
%ADD14C,0.0350*%
%ADD15C,0.0400*%
%ADD16C,0.0650*%
%ADD17C,0.0750*%
%ADD18R,0.0650X0.0650*%
%ADD19R,0.0750X0.0750*%
G36*X-00005Y-00005D02*G01X010286D01*Y010286D01*X-00005D01*Y-00005D01*
G37*
%LPC*%
D15*X005157Y002323D03*D17*X00055Y00046D03*D15*X005236Y000315D03*D17*
X00055Y00146D03*D15*X005236Y001181D03*D17*X00055Y00246D03*D15*
X006102Y001654D03*D17*X00055Y00346D03*D15*X005748Y002835D03*D17*
X00055Y00446D03*D15*X00563Y00374D03*D17*X00055Y00546D03*Y00646D03*
Y00746D03*Y00846D03*D15*X005236Y006535D03*X005354Y005669D03*D17*
X00716Y00944D03*D15*X005433Y004882D03*D17*X00816Y00944D03*X00616D03*
D19*X00416D03*D17*X006732Y008307D03*D15*X006417Y006535D03*
X001339Y000787D03*X006535Y000748D03*D19*X005732Y008307D03*D17*
X00516Y00944D03*D19*X00055Y00946D03*D17*X00937Y009551D03*Y008551D03*
Y007551D03*Y006551D03*Y005551D03*Y002551D03*Y001551D03*D19*Y000551D03*
D15*X006929Y001693D03*D17*X00937Y003551D03*Y004551D03*D15*
X006929Y003189D03*D13*X00055Y00046D02*G01X000724Y000315D01*
X001261Y000303D01*X001731D01*X005236Y000315D01*X00055Y00146D02*
X001307Y001488D01*X001693Y001102D01*X005157D01*X005236Y001181D01*
X00055Y00246D02*X00137Y002488D01*X001969Y00189D01*X004094D01*
X004252Y001732D01*X006024D01*X006102Y001654D01*X00055Y00346D02*
X001512Y003488D01*X002244Y002756D01*X005669D01*X005748Y002835D01*
X00055Y00446D02*X001575Y004488D01*X002323Y00374D01*X00563D01*
X005354Y005669D02*X006654D01*X00748Y006496D01*Y009472D01*
X00716Y00944D01*X005433Y004882D02*X007244D01*X008504Y006142D01*
Y009449D01*X00816Y00944D01*X006535Y000748D02*Y00185D01*
X006181Y002205D01*Y003701D01*X00563Y004252D01*X002874D01*
X001772Y005354D01*Y007008D01*Y008661D01*X000984Y009449D01*X002992D01*
X004134Y008307D01*X005732D01*X00516Y00944D01*X000984Y009449D02*
X00063D01*X000591Y009488D01*X00055Y00946D01*X006929Y001693D02*
X00815D01*X008543Y002087D01*Y002653D01*X00937Y003551D01*D12*
X009048Y00456D02*X00937Y004551D01*X007677Y003189D02*X009048Y00456D01*
X006929Y003189D02*X007677D01*
%LPD*%
D13*X005157Y002323D03*D11*X005264Y002429D02*X005299Y002464D01*
X005157Y002473D02*Y002523D01*X005051Y002429D02*X005016Y002464D01*
X005007Y002323D02*X004957D01*X005051Y002217D02*X005016Y002181D01*
X005157Y002173D02*Y002123D01*X005264Y002217D02*X005299Y002181D01*
X005307Y002323D02*X005357D01*D16*X00055Y00046D03*D13*X005236Y000315D03*
D16*X00055Y00146D03*D13*X005236Y001181D03*D16*X00055Y00246D03*D13*
X006102Y001654D03*D16*X00055Y00346D03*D13*X005748Y002835D03*D16*
X00055Y00446D03*D13*X00563Y00374D03*D16*X00055Y00546D03*Y00646D03*
Y00746D03*D14*X00078Y00769D02*X000815Y007725D01*X00055Y007785D02*
Y007835D01*X00032Y00769D02*X000285Y007725D01*X000225Y00746D02*
X000175D01*X00032Y00723D02*X000285Y007195D01*X00055Y007135D02*
Y007085D01*X00078Y00723D02*X000815Y007195D01*X000875Y00746D02*
X000925D01*D16*X00055Y00846D03*D14*X00078Y00869D02*X000815Y008725D01*
X00055Y008785D02*Y008835D01*X00032Y00869D02*X000285Y008725D01*
X000225Y00846D02*X000175D01*X00032Y00823D02*X000285Y008195D01*
X00055Y008135D02*Y008085D01*X00078Y00823D02*X000815Y008195D01*
X000875Y00846D02*X000925D01*D13*X005236Y006535D03*X005354Y005669D03*
D16*X00716Y00944D03*D13*X005433Y004882D03*D16*X00816Y00944D03*
X00616D03*D14*X00639Y00967D02*X006425Y009705D01*X00616Y009765D02*
Y009815D01*X00593Y00967D02*X005895Y009705D01*X005835Y00944D02*
X005785D01*X00593Y00921D02*X005895Y009175D01*X00616Y009115D02*
Y009065D01*X00639Y00921D02*X006425Y009175D01*X006485Y00944D02*
X006535D01*D18*X00416D03*D16*X006732Y008307D03*D13*X006417Y006535D03*
D11*X006523Y006642D02*X006559Y006677D01*X006417Y006685D02*Y006735D01*
X006311Y006642D02*X006276Y006677D01*X006267Y006535D02*X006217D01*
X006311Y006429D02*X006276Y006394D01*X006417Y006385D02*Y006335D01*
X006523Y006429D02*X006559Y006394D01*X006567Y006535D02*X006617D01*D13*
X001339Y000787D03*D11*X001445Y000893D02*X00148Y000929D01*
X001339Y000937D02*Y000987D01*X001233Y000893D02*X001197Y000929D01*
X001189Y000787D02*X001139D01*X001233Y000681D02*X001197Y000646D01*
X001339Y000637D02*Y000587D01*X001445Y000681D02*X00148Y000646D01*
X001489Y000787D02*X001539D01*D13*X006535Y000748D03*D18*
X005732Y008307D03*D16*X00516Y00944D03*D18*X00055Y00946D03*D16*
X00937Y009551D03*Y008551D03*Y007551D03*Y006551D03*Y005551D03*
Y002551D03*Y001551D03*D18*Y000551D03*D13*X006929Y001693D03*D16*
X00937Y003551D03*Y004551D03*D13*X006929Y003189D03*D10*X00055Y00046D02*
X000724Y000315D01*X001261Y000303D01*X001731D01*X005236Y000315D01*
X00055Y00146D02*X001307Y001488D01*X001693Y001102D01*X005157D01*
X005236Y001181D01*X00055Y00246D02*X00137Y002488D01*X001969Y00189D01*
X004094D01*X004252Y001732D01*X006024D01*X006102Y001654D01*
X00055Y00346D02*X001512Y003488D01*X002244Y002756D01*X005669D01*
X005748Y002835D01*X00055Y00446D02*X001575Y004488D01*X002323Y00374D01*
X00563D01*X005354Y005669D02*X006654D01*X00748Y006496D01*Y009472D01*
X00716Y00944D01*X005433Y004882D02*X007244D01*X008504Y006142D01*
Y009449D01*X00816Y00944D01*X006535Y000748D02*Y00185D01*
X006181Y002205D01*Y003701D01*X00563Y004252D01*X002874D01*
X001772Y005354D01*Y007008D01*Y008661D01*X000984Y009449D01*X002992D01*
X004134Y008307D01*X005732D01*X00516Y00944D01*X000984Y009449D02*
X00063D01*X000591Y009488D01*X00055Y00946D01*X006929Y001693D02*
X00815D01*X008543Y002087D01*Y002653D01*X00937Y003551D01*
X009048Y00456D02*X00937Y004551D01*X007677Y003189D02*X009048Y00456D01*
X006929Y003189D02*X007677D01*
M02*