%FSTAX24Y24*%
%MOIN*%
%IN MASK1.GBR *%
%ADD10C,0.0500*%
%ADD11C,0.0850*%
%ADD12R,0.0672X0.0987*%
%ADD13R,0.0700X0.0450*%
%ADD14R,0.0700X0.0700*%
%ADD15R,0.0850X0.0850*%
%ADD16R,0.1460X0.0791*%
%ADD17R,0.1460X0.0869*%
D10*X005157Y002323D03*D14*X008297Y002183D03*X008307Y002953D03*
X003661Y000512D03*X002891Y000522D03*D12*X003025Y0096D03*X00145D03*
Y006844D03*X003025D03*D14*X004606Y00752D03*X004616Y00829D03*
X003661Y005591D03*X002891Y005601D03*X003661Y004567D03*
X002891Y004577D03*X00188Y004781D03*X00189Y005551D03*D11*
X00055Y00046D03*Y00146D03*Y00246D03*Y00346D03*Y00446D03*Y00546D03*
Y00646D03*Y00746D03*Y00846D03*D15*Y00946D03*D13*X007448Y003193D03*
Y003693D03*Y004193D03*Y004693D03*Y005193D03*Y005693D03*Y006193D03*
Y006693D03*X004528D03*Y006193D03*Y005693D03*Y005193D03*Y004693D03*
Y004193D03*Y003693D03*Y003193D03*Y002693D03*X007448D03*
X004528Y002193D03*X007448D03*Y001693D03*X004528D03*X007448Y001193D03*
X004528D03*Y000693D03*X007448D03*X004528Y000193D03*X007448D03*D16*
X003425Y001496D03*Y003543D03*D17*Y00252D03*D10*X005236Y000315D03*
X005748Y002835D03*X005236Y006535D03*X005354Y005669D03*
X005433Y004882D03*X005236Y001181D03*X00563Y00374D03*D11*
X00816Y00944D03*X00716D03*X00616D03*X00516D03*D15*X00416D03*D11*
X006732Y008307D03*D15*X005732D03*D14*X00189Y003543D03*X00188Y002773D03*
D10*X006102Y001654D03*X006417Y006535D03*X001339Y000787D03*
X006535Y000748D03*D11*X00937Y009551D03*Y008551D03*Y007551D03*
Y006551D03*Y005551D03*Y004551D03*Y003551D03*Y002551D03*Y001551D03*D15*
Y000551D03*D10*X006929Y001693D03*Y003189D03*
M02*