%FSTAX24Y24*%
%MOIN*%
%IN SILK2.GBR *%
%ADD10C,0.0056*%
D10*X008346Y00613D02*G01X008403Y006187D01*X008515D01*X008571Y00613D01*
Y005906D01*X008515Y005849D01*X008403D01*X008346Y005906D01*Y00613D01*
X008009D02*X008065Y006187D01*X008178D01*X008234Y00613D01*Y006074D01*
X008178Y006018D01*X008065D01*X008009Y005962D01*Y005906D01*
X008065Y005849D01*X008178D01*X008234Y005906D01*X007897Y006187D02*
Y006018D01*Y005849D01*Y006018D02*X007672D01*Y006187D01*Y006018D02*
Y005849D01*X007222Y00613D02*X007165Y006187D01*X007053D01*
X006997Y00613D01*Y006074D01*X007053Y006018D01*X007222Y005906D01*
Y005849D01*X006997D01*X006659Y00613D02*X006715Y006187D01*X006828D01*
X006884Y00613D01*Y005906D01*X006828Y005849D01*X006715D01*
X006659Y005906D01*Y00613D01*X006772Y006074D02*Y005962D01*
X00649Y00613D02*X006434Y006187D01*Y005849D01*X006378D01*X006434D02*
X00649D01*X005984Y006187D02*X006209D01*Y006018D01*X006153Y006074D01*
X00604D01*X005984Y006018D01*Y005906D01*X00604Y005849D01*X006153D01*
X006209Y005906D01*X005816Y00613D02*X005759Y006187D01*Y005849D01*
X005703D01*X005759D02*X005816D01*X005534Y00613D02*X005478Y006187D01*
X005366D01*X005309Y00613D01*Y006074D01*X005366Y006018D01*
X005534Y005906D01*Y005849D01*X005309D01*X004972Y00613D02*
X005028Y006187D01*X005141D01*X005197Y00613D01*Y005906D01*
X005141Y005849D01*X005028D01*X004972Y005906D01*Y00613D01*
X005084Y006074D02*Y005962D01*X004859Y00613D02*X004803Y006187D01*
X004691D01*X004634Y00613D01*Y006074D01*X004691Y006018D01*
X004859Y005906D01*Y005849D01*X004634D01*X008279Y007171D02*
X008335Y007227D01*X008504D01*Y00689D01*X008335D01*X008279Y006946D01*
Y007171D01*X007942Y00689D02*Y007115D01*X008166Y006963D02*
X008147Y007033D01*X008116Y007081D01*X008076Y007106D01*
X008048Y007115D01*X008026D01*X007987D01*X007942Y007092D01*
X008166Y00696D02*Y006943D01*X008164Y006932D01*X008155Y006918D01*
X008136Y006907D01*X008096Y00689D01*X008034D01*X007975Y006915D01*
X007942Y006946D01*X007829Y007143D02*Y00689D01*Y007044D02*
X007759Y007115D01*X007688D01*X007618Y007044D01*Y00689D01*
X007492Y007143D02*Y00689D01*Y007044D02*X007421Y007115D01*X007351D01*
X007281Y007044D01*Y00689D01*X007154Y007115D02*X007126D01*
X007028Y00689D01*X006943Y007115D02*Y007087D01*X007084Y006763D01*
X007112D01*X006479Y007227D02*Y007002D01*Y00689D01*Y007002D02*
X006423Y007058D01*X006254Y00689D01*X006423Y007058D02*X006254Y007227D01*
X006142Y00696D02*Y007044D01*X006071Y007115D01*X006001D01*
X005931Y007044D01*Y00696D01*X006001Y00689D01*X006071D01*
X006142Y00696D01*X005804Y007143D02*Y00689D01*X005593Y007073D02*
X005664Y007115D01*X005734D01*X005804Y007073D01*X005467Y007016D02*
X005256D01*Y007044D01*X005326Y007115D01*X005397D01*X005467Y007058D01*
Y00696D01*Y006946D01*X005411Y00689D01*X005298D01*X005256Y006918D01*
X005129Y007143D02*Y00689D01*Y007044D02*X005059Y007115D01*X004989D01*
X004918Y007044D01*Y00689D01*X004792Y007115D02*X004764D01*
X004665Y00689D01*X004581Y007115D02*Y007087D01*X004722Y006763D01*
X00475D01*X004117Y007058D02*X003892D01*X003299Y007126D02*
X003301Y007123D01*X003313Y006999D01*X003307Y006985D01*
X003296Y006974D01*X003279Y006971D01*X003262Y006983D01*
X003259Y006985D02*X003248Y007014D01*X003237Y007067D01*
X003234Y007098D01*X003237Y007137D01*X003254Y007171D01*
X003279Y007193D01*X003321Y007202D01*X003363Y007199D01*
X003408Y007179D01*X003439Y007134D01*X003453Y007073D01*Y007008D01*
X003442Y006957D01*X003411Y006924D01*X003377Y006912D01*X003346D01*
X003301Y00712D02*X003321Y007129D01*X003338Y007132D01*X003355Y007129D01*
X003366Y00712D01*X003369D02*X003386Y007089D01*X003394Y007042D01*
Y007011D01*X003391Y006999D01*X003383Y006994D01*X003366D01*X003361D02*
X003313Y007014D01*X003344Y006912D02*X00333Y006915D01*X002964Y00689D02*
X003034D01*X003105Y006918D02*X003076Y00689D01*X002922D01*
X002894Y006918D01*Y006974D01*X002922Y007002D01*X003076D01*
X003105Y00703D01*Y007087D01*X003076Y007115D01*X002922D01*
X002894Y007087D01*X002556Y007115D02*Y00689D01*Y006946D02*
X002612Y00689D01*X002711D01*X002767Y006946D01*Y007115D01*
X002373Y007171D02*Y006918D01*X002345Y00689D01*X002303D01*
X002275Y006918D01*X00243Y007115D02*X002317D01*X002008Y00689D02*
Y007199D01*X00198Y007227D01*X001924D01*X001895Y007199D01*Y007185D01*
X002064Y007058D02*X001952D01*X001544Y007115D02*Y00689D01*Y006946D02*
X0016Y00689D01*X001699D01*X001755Y006946D01*Y007115D01*
X001333Y00689D02*Y007199D01*X001305Y007227D01*X001249D01*
X00122Y007199D01*Y007185D01*X001389Y007058D02*X001277D01*
X008318Y005366D02*X008543D01*Y005197D01*Y005028D01*X008318D01*
X008543Y005197D02*X008375D01*X008206Y005281D02*Y005028D01*Y005183D02*
X008136Y005253D01*X008065D01*X007995Y005183D01*Y005028D01*
X007812Y005309D02*Y005056D01*X007784Y005028D01*X007742D01*
X007714Y005056D01*X007868Y005253D02*X007756D01*X007531Y005281D02*
Y005028D01*X00732Y005211D02*X00739Y005253D01*X007461D01*
X007531Y005211D01*X007193Y005253D02*X007165D01*X007067Y005028D01*
X006983Y005253D02*Y005225D01*X007123Y004902D01*X007151D01*
X006434Y005028D02*Y005337D01*X006406Y005366D01*X00635D01*
X006322Y005337D01*Y005323D01*X00649Y005197D02*X006378D01*
X006181Y005098D02*Y005183D01*X006111Y005253D01*X00604D01*
X00597Y005183D01*Y005098D01*X00604Y005028D01*X006111D01*
X006181Y005098D01*X005844Y005281D02*Y005028D01*X005633Y005211D02*
X005703Y005253D01*X005773D01*X005844Y005211D01*X004944Y005309D02*
X005Y005366D01*X005112D01*X005169Y005309D01*Y005253D01*
X005112Y005197D01*X005D01*X004944Y005141D01*Y005084D01*X005Y005028D01*
X005112D01*X005169Y005084D01*X004634D02*X004691Y005028D01*X004761D01*
X004831Y005098D01*Y005197D01*X004761Y005253D01*X004691D01*
X004634Y005197D01*Y004888D01*X004536Y004944D01*X004283Y005253D02*
Y005028D01*Y005084D02*X004339Y005028D01*X004438D01*X004494Y005084D01*
Y005253D01*X003931Y005028D02*Y005253D01*X004156Y005101D02*
X004137Y005172D01*X004106Y005219D01*X004066Y005245D01*
X004038Y005253D01*X004016D01*X003976D01*X003931Y005231D01*
X004156Y005098D02*Y005082D01*X004154Y00507D01*X004145Y005056D01*
X004125Y005045D01*X004086Y005028D01*X004024D01*X003965Y005053D01*
X003931Y005084D01*X003819Y005281D02*Y005028D01*X003608Y005211D02*
X003678Y005253D01*X003749D01*X003819Y005211D01*X003481Y005155D02*
X003271D01*Y005183D01*X003341Y005253D01*X003411D01*X003481Y005197D01*
Y005098D01*Y005084D01*X003425Y005028D01*X003313D01*X003271Y005056D01*
X00275Y005028D02*Y005366D01*X002778D02*X002722D01*X002778Y005028D02*
X002722D01*X002582Y005281D02*Y005028D01*Y005183D02*X002511Y005253D01*
X002441D01*X002371Y005183D01*Y005028D01*X002089Y005253D02*Y005225D01*
X002132Y005253D01*X002146D01*X002174Y005239D01*X002216Y005197D01*
X002244Y005127D01*Y005098D01*X00223Y005056D01*X002174Y005028D01*
X002103D01*X002033Y00507D01*X001907Y005366D02*Y005028D01*Y005197D02*
X001836Y005253D01*X001766D01*X001696Y005183D01*Y005028D01*
X008316Y004424D02*X008372Y00448D01*X008484D01*X00854Y004424D01*
Y004199D01*X008484Y004142D01*X008372D01*X008316Y004199D01*
X008203Y004213D02*Y004297D01*X008133Y004367D01*X008062D01*
X007992Y004297D01*Y004213D01*X008062Y004142D01*X008133D01*
X008203Y004213D01*X00776Y004142D02*Y004297D01*X007708Y004367D01*
X007655Y004297D01*Y004142D01*X007866Y004297D02*X007813Y004367D01*
X00776Y004297D01*X007866Y004395D02*Y004142D01*X007528Y004367D02*
Y004016D01*Y004213D02*X007458Y004142D01*X007388D01*X007317Y004213D01*
Y004297D01*X007388Y004367D01*X007458D01*X007528Y004311D01*
X006853Y004213D02*Y004297D01*X006783Y004367D01*X006713D01*
X006642Y004297D01*Y004213D01*X006713Y004142D01*X006783D01*
X006853Y004213D01*X006516Y004395D02*Y004142D01*Y004297D02*
X006445Y004367D01*X006375D01*X006305Y004297D01*Y004142D01*
X005841Y00448D02*Y004142D01*Y004311D02*X005771Y004367D01*X0057D01*
X00563Y004297D01*Y004142D01*X005278D02*Y004367D01*X005503Y004215D02*
X005484Y004286D01*X005453Y004334D01*X005413Y004359D01*
X005385Y004367D01*X005363D01*X005323D01*X005278Y004345D01*
X005503Y004213D02*Y004196D01*X005501Y004184D01*X005492Y00417D01*
X005472Y004159D01*X005433Y004142D01*X005371D01*X005312Y004168D01*
X005278Y004199D01*X005011Y004367D02*Y004339D01*X005053Y004367D01*
X005067D01*X005096Y004353D01*X005138Y004311D01*X005166Y004241D01*
Y004213D01*X005152Y00417D01*X005096Y004142D01*X005025D01*
X004955Y004184D01*X0048Y00448D02*Y004142D01*Y004227D02*
X004632Y004395D01*Y004142D02*X004758Y004269D01*X004266Y004142D02*
Y004367D01*X004491Y004215D02*X004471Y004286D01*X00444Y004334D01*
X004401Y004359D01*X004373Y004367D01*X00435D01*X004311D01*
X004266Y004345D01*X004491Y004213D02*Y004196D01*X004488Y004184D01*
X00448Y00417D01*X00446Y004159D01*X004421Y004142D01*X004359D01*
X0043Y004168D01*X004266Y004199D01*X003943Y00448D02*Y004142D01*
Y004297D02*X004013Y004367D01*X004083D01*X004154Y004311D01*Y004213D01*
X004083Y004142D01*X004013D01*X003943Y004213D01*X003591Y004142D02*
Y004367D01*X003816Y004215D02*X003796Y004286D01*X003765Y004334D01*
X003726Y004359D01*X003698Y004367D01*X003675D01*X003636D01*
X003591Y004345D01*X003816Y004213D02*Y004196D01*X003813Y004184D01*
X003805Y00417D01*X003785Y004159D01*X003746Y004142D01*X003684D01*
X003625Y004168D01*X003591Y004199D01*X003479Y004367D02*X003451D01*
X003352Y004142D01*X003268Y004367D02*Y004339D01*X003408Y004016D01*
X003436D01*X008324Y008971D02*X00838Y009027D01*X008549D01*Y00869D01*
X00838D01*X008324Y008746D01*Y008971D01*X007986D02*X008043Y009027D01*
X008155D01*X008211Y008971D01*Y008915D01*X008155Y008858D01*X008043D01*
X007986Y008802D01*Y008746D01*X008043Y00869D01*X008155D01*
X008211Y008746D01*X007874Y00869D02*Y009027D01*X007705D01*
X007649Y008971D01*Y008915D01*X007705Y008858D01*X007874D01*
X00748Y00869D02*Y009027D01*X007508D02*X007452D01*X007508Y00869D02*
X007452D01*X007087Y008971D02*X007143Y009027D01*X007255D01*
X007312Y008971D01*Y008746D01*X007255Y00869D01*X007143D01*
X007087Y008746D01*X006974Y008971D02*X006918Y009027D01*X006805D01*
X006749Y008971D01*Y008915D01*X006805Y008858D01*X006749Y008802D01*
Y008746D01*X006805Y00869D01*X006918D01*X006974Y008746D01*
X006805Y008858D02*X006862D01*X006637Y008971D02*X00658Y009027D01*
X006468D01*X006412Y008971D01*Y008915D01*X006468Y008858D01*
X006412Y008802D01*Y008746D01*X006468Y00869D01*X00658D01*
X006637Y008746D01*X006468Y008858D02*X006524D01*X005737Y008971D02*
X005793Y009027D01*X005906D01*X005962Y008971D01*Y008915D01*
X005906Y008858D01*X005793D01*X005737Y008802D01*Y008746D01*
X005793Y00869D01*X005906D01*X005962Y008746D01*X005399D02*Y008971D01*
X005456Y009027D01*X005568D01*X005624Y008971D01*Y008746D01*
X005568Y00869D01*X005456D01*X005399Y008746D01*X005512Y008802D02*
X005399Y00869D01*X005231D02*Y009027D01*X005259D02*X005202D01*
X005259Y00869D02*X005202D01*X008532Y000714D02*X008588Y000771D01*
X008701D01*X008757Y000714D01*Y000489D01*X008701Y000433D01*X008588D01*
X008532Y000489D01*Y000574D01*X008588Y00063D01*X008701D01*
X008757Y000574D01*X008363Y000714D02*X008307Y000771D01*Y000433D01*
X008251D01*X008307D02*X008363D01*X007857Y000714D02*X007913Y000771D01*
X008026D01*X008082Y000714D01*Y000489D01*X008026Y000433D01*X007913D01*
X007857Y000489D01*Y000714D01*X00797Y000658D02*Y000546D01*
X008503Y007897D02*X00839Y007559D01*X008278Y007897D01*X008165Y007686D02*
X007954D01*Y007714D01*X008024Y007784D01*X008095D01*X008165Y007728D01*
Y007629D01*Y007615D01*X008109Y007559D01*X007996D01*X007954Y007587D01*
X007828Y007812D02*Y007559D01*X007617Y007742D02*X007687Y007784D01*
X007757D01*X007828Y007742D01*X00735Y007559D02*X00742D01*
X00749Y007587D02*X007462Y007559D01*X007307D01*X007279Y007587D01*
Y007643D01*X007307Y007672D01*X007462D01*X00749Y0077D01*Y007756D01*
X007462Y007784D01*X007307D01*X007279Y007756D01*X007047Y007777D02*
Y007559D01*Y007868D02*Y007875D01*X006815Y007629D02*Y007714D01*
X006745Y007784D01*X006675D01*X006604Y007714D01*Y007629D01*
X006675Y007559D01*X006745D01*X006815Y007629D01*X006478Y007812D02*
Y007559D01*Y007714D02*X006407Y007784D01*X006337D01*X006267Y007714D01*
Y007559D01*X005747Y00784D02*X00569Y007897D01*Y007559D01*X005634D01*
X00569D02*X005747D01*X005381D02*X005353D01*Y007587D01*X005381D01*
Y007559D01*X005072Y00784D02*X005015Y007897D01*Y007559D01*X004959D01*
X005015D02*X005072D01*X00479Y007897D02*Y007559D01*Y007629D02*
X00472Y007559D01*X00465D01*X00458Y007629D01*Y007714D01*
X00465Y007784D01*X00472D01*X00479Y007728D01*
M02*