%FSTAX24Y24*%
%MOIN*%
%IN SILK1.GBR *%
%ADD10C,0.0056*%
%ADD11C,0.0071*%
%ADD12C,0.0080*%
%ADD13C,0.0086*%
%ADD14C,0.0100*%
%ADD15C,0.0120*%
D12*X008757Y001713D02*G01X007857D01*X008757Y003403D02*X007857D01*
X008757Y001713D02*Y003403D01*X007857Y001713D02*Y003403D01*
X004131Y000972D02*Y000072D01*X002441Y000972D02*Y000072D01*
X004131Y000972D02*X002441D01*X004131Y000072D02*X002441D01*D14*
X002237Y009206D02*X003222D01*Y007238D01*X001253D01*Y009206D01*
X002237D01*X001844Y008222D02*Y008124D01*X001858Y008032D01*
X0019Y00795D01*X001965Y007885D01*X002048Y007843D01*X002139Y007828D01*
X002336D01*X002427Y007843D01*X002509Y007885D01*X002575Y00795D01*
X002617Y008032D01*X002631Y008124D01*Y00832D01*X002617Y008412D01*
X002575Y008494D01*X002509Y008559D01*X002427Y008601D01*
X002336Y008616D01*X002139D01*X002048Y008601D01*X001965Y008559D01*
X0019Y008494D01*X001858Y008412D01*X001844Y00832D01*Y008222D01*D12*
X005066Y00705D02*X004166D01*X005066Y00874D02*X004166D01*
X005066Y00705D02*Y00874D01*X004166Y00705D02*Y00874D01*
X004131Y006051D02*Y005151D01*X002441Y006051D02*Y005151D01*
X004131Y006051D02*X002441D01*X004131Y005151D02*X002441D01*
X004131Y005027D02*Y004127D01*X002441Y005027D02*Y004127D01*
X004131Y005027D02*X002441D01*X004131Y004127D02*X002441D01*
X00234Y004311D02*X00144D01*X00234Y006001D02*X00144D01*X00234Y004311D02*
Y006001D01*X00144Y004311D02*Y006001D01*D14*X00005Y00896D02*X00105D01*
Y00996D01*Y00006D01*X00005D01*Y00996D01*X00105D01*X006148Y006713D02*
X006158Y006693D01*Y006663D01*X006168Y006643D01*X006178Y006613D01*
X006188Y006593D01*X006198Y006573D01*X006218Y006553D01*
X006238Y006533D01*X006258Y006513D01*X006278Y006503D01*
X006298Y006493D01*X006328Y006483D01*X006348Y006473D01*X006378D01*
X006398D01*X006648Y006713D02*X006638Y006693D01*Y006663D01*
X006628Y006643D01*X006618Y006613D01*X006608Y006593D01*
X006598Y006573D01*X006578Y006553D01*X006558Y006533D01*
X006538Y006513D01*X006518Y006503D01*X006498Y006493D01*
X006468Y006483D01*X006448Y006473D01*X006418D01*X006398D01*
X005028Y006693D02*X006128D01*X006678D02*X006928D01*Y000193D01*
X005028D02*Y006693D01*Y000193D02*X006928D01*X002835Y00252D02*
Y001102D01*X004016D01*Y003937D01*X002835D01*Y00252D01*D15*
X00466Y00894D02*Y00994D01*X00366D01*X00866D01*Y00894D01*X00366D01*
Y00994D01*X006232Y007807D02*Y008807D01*X005232D01*X007232D01*
Y007807D01*X005232D01*Y008807D01*D12*X00143Y004013D02*X00233D01*
X00143Y002323D02*X00233D01*X00143Y004013D02*Y002323D01*
X00233Y004013D02*Y002323D01*D14*X00987Y001051D02*X00887D01*Y000051D01*
Y009951D01*X00987D01*Y000051D01*X00887D01*D10*X002148Y006873D02*
X002205Y006929D01*Y007042D01*X002148Y007098D01*X001924D01*
X001867Y007042D01*Y006929D01*X001924Y006873D01*X002008D01*Y006929D01*
X008819Y001024D02*X008481D01*Y001192D01*X008538Y001249D01*X008594D01*
X00865Y001192D01*X008706Y001249D01*X008763D01*X008819Y001192D01*
Y001024D01*X00865Y001192D02*Y001024D01*X008481Y001361D02*Y001586D01*
X008819Y001417D01*X001102Y004646D02*X00144D01*Y004477D01*
X001384Y004421D01*X001327D01*X001271Y004477D01*X001215Y004421D01*
X001159D01*X001102Y004477D01*Y004646D01*X001271Y004477D02*Y004646D01*
X001384Y004308D02*X00144Y004252D01*Y004139D01*X001384Y004083D01*
X001327D01*X001271Y004139D01*X001159Y004308D01*X001102D01*Y004083D01*
X002064Y006727D02*X002402Y006614D01*X002191Y006544D01*
X002064Y006502D01*X002191Y006544D02*Y006684D01*X002345Y006164D02*
X002402Y00622D01*Y006333D01*X002345Y006389D01*X00212D01*
X002064Y006333D01*Y00622D01*X00212Y006164D01*X002345D01*
X002289Y006277D02*X002177D01*X007942Y006395D02*Y006732D01*X00811D01*
X008166Y006676D01*Y00662D01*X00811Y006564D01*X008166Y006507D01*
Y006451D01*X00811Y006395D01*X007942D01*X00811Y006564D02*X007942D01*
X008335Y006676D02*X008391Y006732D01*Y006395D01*X008448D01*X008391D02*
X008335D01*X008616Y006676D02*X008673Y006732D01*X008785D01*
X008841Y006676D01*Y00662D01*X008785Y006564D01*X008616Y006451D01*
Y006395D01*X008841D01*X008082Y004331D02*Y004668D01*X008195D01*
X008082D02*X00797D01*X008532Y004612D02*X008476Y004668D01*X008307D01*
Y004331D01*X008476D01*X008532Y004387D01*Y004612D01*X008701Y004331D02*
Y004668D01*X008673D02*X008729D01*X008673Y004331D02*X008729D01*
X002582Y006873D02*X002638Y006929D01*Y007042D01*X002582Y007098D01*
X002357D01*X0023Y007042D01*Y006929D01*X002357Y006873D01*X002441D01*
Y006929D01*X008999Y002205D02*X008661D01*Y002317D01*Y002205D02*
Y002092D01*X008718Y002655D02*X008661Y002598D01*Y002486D01*
X008718Y00243D01*X008943D01*X008999Y002486D01*Y002598D01*
X008943Y002655D01*X008661Y002767D02*X008886D01*X008999D01*X008886D02*
X00883Y002823D01*X008999Y002992D01*X00883Y002823D02*X008661Y002992D01*
X007953Y00356D02*Y003898D01*X008065D01*X007953D02*X00784D01*
X008403Y003841D02*X008346Y003898D01*X008178D01*Y00356D01*X008346D01*
X008403Y003616D01*Y003841D01*X00874D02*X008684Y003898D01*X008571D01*
X008515Y003841D01*Y003616D01*X008571Y00356D01*X008684D01*
X00874Y003616D01*Y003841D01*X008757Y007081D02*X00842D01*Y00725D01*
X008476Y007306D01*X008532D01*X008588Y00725D01*X008645Y007306D01*
X008701D01*X008757Y00725D01*Y007081D01*X008588Y00725D02*Y007081D01*
X008476Y007475D02*X00842Y007531D01*X008757D01*Y007587D01*Y007531D02*
Y007475D01*X008476Y007756D02*X00842Y007812D01*Y007925D01*
X008476Y007981D01*X008532D01*X008588Y007925D01*X008645Y007981D01*
X008701D01*X008757Y007925D01*Y007812D01*X008701Y007756D01*
X008588Y007925D02*Y007868D01*X001133Y005655D02*X001471Y005543D01*
X00126Y005472D01*X001133Y00543D01*X00126Y005472D02*Y005613D01*
X001415Y005262D02*X001471Y005205D01*X001133D01*Y005149D01*Y005205D02*
Y005262D01*X001091Y003735D02*X001429D01*Y003566D01*X001372Y00351D01*
X001316D01*X00126Y003566D01*X001204Y00351D01*X001147D01*
X001091Y003566D01*Y003735D01*X00126Y003566D02*Y003735D01*
X001372Y003397D02*X001429Y003341D01*Y003228D01*X001372Y003172D01*
X001316D01*X00126Y003228D01*X001204Y003172D01*X001147D01*
X001091Y003228D01*Y003341D01*X001147Y003397D01*X00126Y003228D02*
Y003285D01*X001119Y002688D02*X001457D01*Y00252D01*X0014Y002463D01*
X001344D01*X001288Y00252D01*X001232Y002463D01*X001175D01*
X001119Y00252D01*Y002688D01*X001288Y00252D02*Y002688D01*
X001119Y002182D02*X001457D01*X00126Y002351D01*Y002126D01*
X00113Y000652D02*X001468D01*Y000484D01*X001412Y000427D01*X001355D01*
X001299Y000484D01*X001243Y000427D01*X001187D01*X00113Y000484D01*
Y000652D01*X001299Y000484D02*Y000652D01*X001468Y00009D02*Y000315D01*
X001299D01*X001355Y000259D01*Y000146D01*X001299Y00009D01*X001187D01*
X00113Y000146D01*Y000259D01*X001187Y000315D01*X008796Y000135D02*
X008459D01*Y000304D01*X008515Y00036D01*X008571D01*X008628Y000304D01*
X008684Y00036D01*X00874D01*X008796Y000304D01*Y000135D01*
X008628Y000304D02*Y000135D01*X008515Y000697D02*X008459Y000641D01*
Y000529D01*X008515Y000472D01*X00874D01*X008796Y000529D01*Y000641D01*
X00874Y000697D01*X008656D01*X0086Y000641D01*Y000529D01*
X008656Y000472D01*X001133Y001679D02*X001471Y001566D01*X00126Y001496D01*
X001133Y001454D01*X00126Y001496D02*Y001637D01*X001133Y001173D02*
X001471D01*X001274Y001341D01*Y001116D01*X00874Y00518D02*X008403D01*
Y005292D01*Y00518D02*Y005067D01*X00874Y005405D02*X008403D01*
X008571Y005517D01*X008403Y00563D01*X00874D01*X008459Y005967D02*
X008403Y005911D01*Y005799D01*X008459Y005742D01*X008515D01*
X008571Y005799D01*Y005911D01*X008628Y005967D01*X008684D01*
X00874Y005911D01*Y005799D01*X008684Y005742D01*X007913Y008346D02*
Y008684D01*X008082D01*X008138Y008628D01*Y008571D01*X008082Y008515D01*
X008138Y008459D01*Y008403D01*X008082Y008346D01*X007913D01*
X008082Y008515D02*X007913D01*X008307Y008628D02*X008363Y008684D01*
Y008346D01*X00842D01*X008363D02*X008307D01*X008757D02*Y008684D01*
X008588Y008487D01*X008813D01*X005337Y007556D02*X005335Y007553D01*
X005323Y00743D01*X005329Y007416D01*X00534Y007404D01*X005357Y007402D01*
X005374Y007413D01*X005377Y007416D02*X005388Y007444D01*
X005399Y007497D01*X005402Y007528D01*X005399Y007567D01*
X005382Y007601D01*X005357Y007624D01*X005315Y007632D01*
X005273Y007629D01*X005228Y00761D01*X005197Y007565D01*X005183Y007503D01*
Y007438D01*X005194Y007388D01*X005225Y007354D01*X005259Y007343D01*
X00529D01*X005335Y007551D02*X005315Y007559D01*X005298Y007562D01*
X005281Y007559D01*X00527Y007551D01*X005267D02*X00525Y00752D01*
X005242Y007472D01*Y007441D01*X005245Y00743D01*X005253Y007424D01*
X00527D01*X005276D02*X005323Y007444D01*X005292Y007343D02*
X005307Y007345D01*X005672Y00732D02*X005602D01*X005531Y007348D02*
X00556Y00732D01*X005714D01*X005742Y007348D01*Y007404D01*
X005714Y007433D01*X00556D01*X005531Y007461D01*Y007517D01*
X00556Y007545D01*X005714D01*X005742Y007517D01*X00608Y007545D02*
Y00732D01*Y007376D02*X006024Y00732D01*X005925D01*X005869Y007376D01*
Y007545D01*X006263Y007601D02*Y007348D01*X006291Y00732D01*X006333D01*
X006361Y007348D01*X006206Y007545D02*X006319D01*X006628Y00732D02*
Y007629D01*X006656Y007657D01*X006713D01*X006741Y007629D01*Y007615D01*
X006572Y007489D02*X006684D01*X007092Y007545D02*Y00732D01*Y007376D02*
X007036Y00732D01*X006938D01*X006881Y007376D01*Y007545D01*
X007303Y00732D02*Y007629D01*X007331Y007657D01*X007388D01*
X007416Y007629D01*Y007615D01*X007247Y007489D02*X007359D01*
X001794Y009691D02*X00185Y009747D01*X001963D01*X002019Y009691D01*
Y009634D01*X001963Y009578D01*X002019Y009522D01*Y009466D01*
X001963Y009409D01*X00185D01*X001794Y009466D01*X001963Y009578D02*
X001907D01*X002216Y009409D02*X002244D01*Y009438D01*X002216D01*
Y009409D01*X002469Y009691D02*X002525Y009747D01*X002638D01*
X002694Y009691D01*Y009634D01*X002638Y009578D01*X002694Y009522D01*
Y009466D01*X002638Y009409D01*X002525D01*X002469Y009466D01*
X002638Y009578D02*X002582D01*X00642Y007227D02*Y00689D01*Y007044D02*
X00635Y007115D01*X00628D01*X006209Y007058D01*Y00696D01*X00628Y00689D01*
X00635D01*X00642Y00696D01*X006575Y007227D02*Y00689D01*Y006974D02*
X006744Y007143D01*Y00689D02*X006617Y007016D01*D13*X008239Y000194D02*
X008325D01*X00841Y00028D01*Y000366D01*X008325Y000452D01*X007896D01*
Y000366D01*Y000537D01*X007982Y000794D02*X007896Y00088D01*X00841D01*
Y000966D01*Y00088D02*Y000794D01*X001865Y002119D02*X00238D01*Y001862D01*
X002294Y001776D01*X002208D01*X002122Y001862D01*X001865Y001776D01*
X002122Y001862D02*Y002119D01*X002294Y001605D02*X00238Y001519D01*
Y001348D01*X002294Y001262D01*X002208D01*X002122Y001348D01*
X001951Y001605D01*X001865D01*Y001262D01*X007369Y00831D02*Y007795D01*
X007712D01*X007969Y008224D02*X008055Y00831D01*Y007795D01*X008141D01*
X008055D02*X007969D01*X003393Y008518D02*Y008432D01*X003479Y008346D01*
X003564D01*X00365Y008432D01*Y008861D01*X003564D01*X003736D01*
X003907Y008775D02*X003993Y008861D01*X004164D01*X00425Y008775D01*
Y008689D01*X004164Y008604D01*X00425Y008518D01*Y008432D01*
X004164Y008346D01*X003993D01*X003907Y008432D01*X004164Y008604D02*
X004079D01*D10*X002379Y001828D02*X002717Y002053D01*Y001828D02*
X002379Y002053D01*X002435Y002222D02*X002379Y002278D01*X002717D01*
Y002334D01*Y002278D02*Y002222D01*D13*X006031Y003979D02*Y00355D01*
X006116Y003465D01*X006288D01*X006373Y00355D01*Y003979D01*
X006545Y003893D02*X006631Y003979D01*X006802D01*X006888Y003893D01*
Y003807D01*X006802Y003722D01*X006545Y00355D01*Y003465D01*X006888D01*
X003454Y0083D02*X003368D01*X003283Y008214D01*Y008129D01*
X003368Y008043D01*X003797D01*Y008129D01*Y007957D01*X003711Y007786D02*
X003797Y0077D01*Y007529D01*X003711Y007443D01*X003626D01*
X00354Y007529D01*X003368Y007786D01*X003283D01*Y007443D01*
X002316Y004434D02*Y00392D01*X002059D01*X001973Y004005D01*Y004091D01*
X002059Y004177D01*X001973Y004434D01*X002059Y004177D02*X002316D01*
X001802Y004005D02*X001716Y00392D01*X001544D01*X001459Y004005D01*
Y004091D01*X001544Y004177D01*X001459Y004262D01*Y004348D01*
X001544Y004434D01*X001716D01*X001802Y004348D01*X001544Y004177D02*
X00163D01*X005625Y004538D02*X00554Y004624D01*X005283D01*Y004109D01*
X00554D01*X005625Y004195D01*Y004538D01*X005797D02*X005883Y004624D01*
X006054D01*X00614Y004538D01*Y004452D01*X006054Y004367D01*
X00614Y004281D01*Y004195D01*X006054Y004109D01*X005883D01*
X005797Y004195D01*X006054Y004367D02*X005968D01*X005616Y005483D02*
X00553Y005569D01*X005273D01*Y005054D01*X00553D01*X005616Y00514D01*
Y005483D01*X005787D02*X005873Y005569D01*X006045D01*X00613Y005483D01*
Y005397D01*X006045Y005311D01*X005787Y00514D01*Y005054D01*X00613D01*
X004094Y007094D02*X00358D01*Y007351D01*X003666Y007436D01*X003752D01*
X003837Y007351D01*X004094Y007436D01*X003837Y007351D02*Y007094D01*
X004094Y007865D02*X00358D01*X00388Y007608D01*Y007951D01*D11*
X00343Y006364D02*Y006793D01*X003644D01*X003715Y006721D01*Y00665D01*
X003644Y006578D01*X003715Y006507D01*Y006436D01*X003644Y006364D01*
X00343D01*X003644Y006578D02*X00343D01*X00393Y006721D02*
X004001Y006793D01*Y006364D01*X004073D01*X004001D02*X00393D01*D13*
X002279Y000477D02*X002365Y000563D01*Y000734D01*X002279Y00082D01*
X001936D01*X00185Y000734D01*Y000563D01*X001936Y000477D01*
X002279Y000306D02*X002365Y00022D01*Y000048D01*X002279Y-000037D01*
X002193D01*X002108Y000048D01*X001936Y000306D01*X00185D01*Y-000037D01*
X008342Y001264D02*X008428Y00135D01*Y001521D01*X008342Y001607D01*
X007999D01*X007913Y001521D01*Y00135D01*X007999Y001264D01*
X008342Y001093D02*X008428Y001007D01*Y000836D01*X008342Y00075D01*
X008256D01*X008171Y000836D01*X008085Y00075D01*X007999D01*
X007913Y000836D01*Y001007D01*X007999Y001093D01*X008171Y000836D02*
Y000921D01*
M02*